<?xml version="1.0" standalone="no"?>
<!DOCTYPE svg PUBLIC "-//W3C//DTD SVG 1.1//EN" "http://www.w3.org/Graphics/SVG/1.1/DTD/svg11.dtd" >
<svg xmlns="http://www.w3.org/2000/svg">
<metadata>
<json>
<![CDATA[
{
	"fontFamily": "icomoon",
	"description": "Font generated by IcoMoon.",
	"majorVersion": 2,
	"minorVersion": 4,
	"version": "Version 2.4",
	"fontId": "icomoon",
	"psName": "icomoon",
	"subFamily": "Regular",
	"fullName": "icomoon"
}
]]>
</json>
</metadata>
<defs>
<font id="icomoon" horiz-adv-x="1024">
<font-face units-per-em="1024" ascent="960" descent="-64" />
<missing-glyph horiz-adv-x="1024" />
<glyph unicode="&#x20;" horiz-adv-x="512" d="" />
<glyph unicode="&#xe900;" glyph-name="cart-lulu" data-tags="cart-lulu" d="M870.401 735.001l-27.305-4.377 25.145 5.418-145.397 41.519-94.114 121.652h-59.896l-40.295 44.784h-155.555l-169.946-240.679-49.443-8.551 8.551-671.301 43.346-7.874 22.282-17.586 8.238-46.008 608.19 129.901-10.88 112.002 37.081 541.098zM803.611 724.297l-40.59-6.454v2.392l-7.446 10.642 48.043-6.58zM628.736 869.455l68.040-84.464-8.375 2.411-28.787-4.991-69.867 87.044h38.989zM640.985 779.153l-250.16-43.365 95.151 133.606h82.857l72.146-90.24zM385.852 914.158h142.754l19.37-14.942h-74.795l-116.24-169.267-121.118-20.976 150.030 205.187zM160.732 666.899l172.275 25.648-33.395-52.274-123.748-31.983-15.132 58.609zM232.2 10.308l-0.866 6.769-57.567 590.221 63.79-582.416-5.355-14.579zM334.614 649.313l31.304 48.169 303.363 45.142 63.218-8.614 13.291-18.942-411.178-65.755z" />
<glyph unicode="&#xe901;" glyph-name="menu" data-tags="menu" d="M972.8 396.8h-921.601c-28.16 0-51.2 23.040-51.2 51.2s23.040 51.2 51.2 51.2h921.601c28.16 0 51.2-23.040 51.2-51.2s-23.040-51.2-51.2-51.2v0zM972.8 652.8h-921.601c-28.16 0-51.2 23.040-51.2 51.2s23.040 51.2 51.2 51.2h921.601c28.16 0 51.2-23.040 51.2-51.2s-23.040-51.2-51.2-51.2v0zM51.2 243.2h921.601c28.16 0 51.2-23.040 51.2-51.2s-23.040-51.2-51.2-51.2h-921.601c-28.16 0-51.2 23.040-51.2 51.2s23.040 51.2 51.2 51.2v0z" />
<glyph unicode="&#xe902;" glyph-name="check-o" data-tags="check-o" d="M512-64c-282.77 0-512 229.23-512 512s229.23 512 512 512c282.77 0 512-229.23 512-512s-229.23-512-512-512zM796.146 650.075c-12.12-0.373-23.637-5.438-32.105-14.112l-312.51-312.51-169.76 136.918c-48.479 39.244-107.325-33.474-58.855-72.719l202.342-163.43c18.605-15.077 45.647-13.572 62.509 3.414l342.426 342.426c30.32 29.75 8.384 81.227-34.046 80.013z" />
<glyph unicode="&#xe903;" glyph-name="circle" data-tags="circle" d="M524.397 79.192c215.444 0 390.095 174.652 390.095 390.095s-174.652 390.095-390.095 390.095c-215.444 0-390.095-174.652-390.095-390.095s174.652-390.095 390.095-390.095zM524.397-18.332c-269.305 0-487.619 218.314-487.619 487.619s218.314 487.619 487.619 487.619c269.305 0 487.619-218.314 487.619-487.619s-218.314-487.619-487.619-487.619z" />
<glyph unicode="&#xe904;" glyph-name="upload-bag" data-tags="upload-bag" d="M905.989 724.209h-143.347c-33.204 115.342-133.541 199.195-252.2 199.195s-218.996-83.852-252.2-199.195h-143.347c-13.054 0-23.655-10.56-23.655-23.655v-713.498c0-13.054 10.597-23.655 23.655-23.655h791.094c13.054 0 23.655 10.597 23.655 23.655v713.498c0 13.094-10.597 23.655-23.655 23.655zM510.442 883.556c97.804 0 181.146-66.355 212.904-159.31h-425.805c31.758 92.954 115.049 159.31 212.904 159.31z" />
<glyph unicode="&#xe905;" glyph-name="upload-bag2" data-tags="upload-bag2" d="M629.893 818.423c26.951-18.669 10.546-43.268-8.123-66.662-18.669-23.448-117.109-35.129-155.686-33.842-38.631 1.238-77.197 31.577-83.122 57.235-5.914 25.674 42.133 49.128 67.797 62.031 25.717 12.919 99.515 10.546 99.515 10.546 28.139-4.621 55.199-14.602 79.619-29.307zM877.959 931.828c-64.034-7.874-196.533-22.014-278.508-18.669-112.277 4.779-311.231 16.405-350.943 23.448-39.701 6.994-84.246 1.292-91.234-23.861s14.037-287.371 11.68-393.066c-2.422-105.69 16.356-342.504 11.718-421.401-4.621-78.897-9.416-112.277 6.994-123.229 16.421-10.953 184.76-23.448 243.288-18.669s315.852 6.994 360.343 16.301c44.49 9.258 105.282-11.366 112.277 41.145 7.005 52.511-4.779 429.112-11.773 518.152-5.452 69.127-12.191 293.165-13.891 399.843h0.055z" />
<glyph unicode="&#xe906;" glyph-name="profile" data-tags="profile" d="M293.019 723.924v0c0 88.518 53.334 168.323 135.14 202.207 81.793 33.869 175.921 15.156 238.532-47.453 62.555-62.57 81.282-156.739 47.4-238.545-33.869-81.752-113.674-135.072-202.193-135.072-120.87 0-218.879 97.995-218.879 218.865v0zM511.898 417.426c-250.708 0-453.852-186.258-453.852-415.824 0.107-15.786 1.262-31.519 3.409-47.145 1.946-10.485 10.914-18.149 21.56-18.458h857.769c10.752 0.216 19.828 7.974 21.761 18.511 2.201 15.626 3.355 31.359 3.409 47.145-0.201 229.726-203.347 415.768-454.054 415.768v0z" />
<glyph unicode="&#xe907;" glyph-name="search2" data-tags="search" d="M1004.149 47.401l-148.327 148.327c143.045 179.175 129.021 443.471-33.8 606.252-86.013 86.052-200.427 133.449-322.179 133.449-121.717 0-236.131-47.397-322.185-133.449-177.659-177.659-177.659-466.7 0-644.364 86.093-86.093 200.502-133.489 322.179-133.489 104.818 0 202.834 34.419 284.108 99.61l148.288-148.288c9.556-9.596 22.339-14.878 35.974-14.878s26.38 5.284 35.936 14.878c19.856 19.856 19.856 52.098 0.003 71.951v0zM750.113 229.569c-66.861-66.861-155.747-103.689-250.269-103.689s-183.411 36.831-250.23 103.689c-137.996 137.956-137.996 362.468 0 500.464 66.823 66.823 155.672 103.652 250.23 103.652s183.447-36.831 250.269-103.652c137.952-137.993 137.952-362.507 0-500.464v0z" />
<glyph unicode="&#xe908;" glyph-name="music-player" data-tags="music-player" d="M0 448v0c0-282.832 229.23-512 512-512v0c282.832 0 512 229.23 512 512v0c0 282.832-229.23 512-512 512v0c-282.832 0-512-229.23-512-512zM450.56 305.646c-3.318 0-6.636 0.778-9.667 2.396-6.656 3.564-10.813 10.486-10.813 18.002v244.9c0 7.516 4.157 14.438 10.813 18.002 6.636 3.543 14.725 3.174 21.033-1.024l184.32-122.45c5.693-3.789 9.114-10.158 9.114-16.978s-3.42-13.189-9.114-16.978l-184.32-122.45c-3.441-2.273-7.393-3.42-11.366-3.42v0z" />
<glyph unicode="&#xe909;" glyph-name="minus" data-tags="minus" d="M0 550.391h1024v-204.785h-1024z" />
<glyph unicode="&#xe90a;" glyph-name="add" data-tags="add" d="M0 550.411h409.606v409.572h204.821v-409.572h409.572v-204.821h-409.572v-409.572h-204.821v409.572h-409.606z" />
<glyph unicode="&#xe90b;" glyph-name="add-qucik-view" data-tags="add-qucik-view" d="M995.025 415.261h-966.048c-16.018 0-28.977 12.959-28.977 28.975 0 16.012 12.959 28.975 28.977 28.975h966.048c16.018 0 28.975-12.963 28.975-28.975 0-16.018-12.958-28.975-28.975-28.975zM497.003-61.366c-16.018 0-28.975 12.959-28.975 28.977v960.781c0 16.018 12.958 28.975 28.975 28.975s28.977-12.958 28.977-28.975v-960.781c0.002-16.018-12.958-28.977-28.977-28.977z" />
<glyph unicode="&#xe90c;" glyph-name="arrow-back-to--top" data-tags="arrow-back-to -top" d="M546.7-23.934v848.693l343.905-343.905c7.826-7.826 18.056-11.673 28.287-11.673 10.204 0 20.541 3.847 28.367 11.673 15.652 15.652 15.652 41.028 0 56.681l-406.812 406.812c-15.652 15.652-41.028 15.652-56.655 0l-407.051-406.918c-15.652-15.652-15.652-41.028 0-56.655 15.652-15.652 41.002-15.652 56.655 0l333.169 333.141v-837.848c0-22.118 17.95-40.067 40.067-40.067s40.067 17.95 40.067 40.067z" />
<glyph unicode="&#xe90d;" glyph-name="arrow-left1" data-tags="arrow-left1" d="M176.101 560.642l-86.462-86.41h908.105c14.494 0 26.256-11.737 26.256-26.231s-11.763-26.231-26.256-26.231h-908.105l86.462-86.41c10.266-10.24 10.266-26.86 0-37.101s-26.86-10.24-37.126 0l-131.281 131.177c-4.753 4.753-7.693 11.316-7.693 18.563s2.94 13.81 7.693 18.563l131.281 131.177c10.266 10.24 26.86 10.24 37.126 0 10.266-10.266 10.266-26.86 0-37.101z" />
<glyph unicode="&#xe90e;" glyph-name="arrow-right1" data-tags="arrow-right1" d="M847.899 560.642l86.462-86.41h-908.105c-14.494 0-26.256-11.737-26.256-26.231s11.763-26.231 26.256-26.231h908.105l-86.462-86.41c-10.266-10.24-10.266-26.86 0-37.101s26.86-10.24 37.126 0l131.281 131.177c4.753 4.753 7.693 11.316 7.693 18.563s-2.94 13.81-7.693 18.563l-131.281 131.177c-10.266 10.24-26.86 10.24-37.126 0-10.266-10.266-10.266-26.86 0-37.101z" />
<glyph unicode="&#xe90f;" glyph-name="arrow-left2" data-tags="arrow-left2" d="M310.138 789.503v0c28.592-1.343 42.79-35.231 23.704-56.58l-221.735-249.3h875.23c1.176 0.060 2.354 0.060 3.53 0 17.804-0.936 33.134-17.924 32.182-35.714-0.936-17.804-17.91-33.118-35.714-32.182h-875.23l221.735-248.954c12.719-14.032 11.482-35.714-2.716-48.267-14.213-12.492-35.894-11.030-48.222 3.35l-271.586 305.534c-11.316 12.856-11.316 32.062 0 44.918l271.586 305.534c6.85 7.846 16.868 12.146 27.234 11.663v0z" />
<glyph unicode="&#xe910;" glyph-name="arrow-right2" data-tags="arrow-right2" d="M713.863 789.503v0c-28.592-1.343-42.79-35.231-23.704-56.58l221.735-249.3h-875.23c-1.176 0.060-2.354 0.060-3.53 0-17.804-0.936-33.134-17.924-32.182-35.714 0.936-17.804 17.91-33.118 35.714-32.182h875.23l-221.735-248.954c-12.719-14.032-11.482-35.714 2.716-48.267 14.213-12.492 35.894-11.030 48.222 3.35l271.586 305.534c11.316 12.856 11.316 32.062 0 44.918l-271.586 305.534c-6.85 7.846-16.868 12.146-27.234 11.663v0z" />
<glyph unicode="&#xe911;" glyph-name="arrow-left3" data-tags="arrow-left3" d="M744.604-64c-11.366 0-22.73 4.274-31.426 13.086l-465.292 465.412c-17.389 17.389-17.389 45.549 0 62.939l465.174 465.174c17.389 17.389 45.549 17.389 62.939 0s17.389-45.579 0-62.939l-433.748-433.78 433.748-433.748c17.507-17.507 17.507-45.549 0-63.058-8.695-8.695-20.060-13.086-31.396-13.086z" />
<glyph unicode="&#xe912;" glyph-name="arrow-right3" data-tags="arrow-right3" d="M279.396-64c11.366 0 22.73 4.274 31.426 13.086l465.292 465.412c17.389 17.389 17.389 45.549 0 62.939l-465.174 465.174c-17.389 17.389-45.549 17.389-62.939 0s-17.389-45.579 0-62.939l433.748-433.78-433.748-433.748c-17.507-17.507-17.507-45.549 0-63.058 8.695-8.695 20.060-13.086 31.396-13.086z" />
<glyph unicode="&#xe913;" glyph-name="arrow-left4" data-tags="arrow-left4" d="M721.362-64l93.953 93.953-418.635 418.701 417.33 417.33-93.949 94.016-511.377-511.377z" />
<glyph unicode="&#xe914;" glyph-name="arrow-right4" data-tags="arrow-right4" d="M302.638-64l-93.953 93.953 418.635 418.701-417.33 417.33 93.949 94.016 511.377-511.377z" />
<glyph unicode="&#xe915;" glyph-name="arrow-left5" data-tags="arrow-left5" d="M883.614 960l-743.222-512 743.222-512z" />
<glyph unicode="&#xe916;" glyph-name="arrow-right5" data-tags="arrow-right5" d="M140.391 960l743.222-512-743.222-512z" />
<glyph unicode="&#xe917;" glyph-name="arrow-right6" data-tags="arrow-right6" d="M166.083 780.167l332.167-332.167-332.167-332.167 179.833-179.833 512 512-512 512z" />
<glyph unicode="&#xe918;" glyph-name="arrow-down" data-tags="arrow-down" d="M512 64l512 640h-1024z" />
<glyph unicode="&#xe919;" glyph-name="cart-juice" data-tags="cart-juice" d="M797.514-30.503c-52.742 0-95.712 42.956-95.712 95.697s42.97 95.697 95.712 95.697c52.742 0 95.697-42.956 95.697-95.697s-42.956-95.697-95.697-95.697v0zM797.514 97.099c-17.599 0-31.904-14.305-31.904-31.904s14.305-31.89 31.904-31.89c17.599 0 31.904 14.291 31.904 31.89s-14.305 31.904-31.904 31.904v0zM350.9-30.503c-52.742 0-95.697 42.956-95.697 95.697s42.956 95.697 95.697 95.697c52.742 0 95.697-42.956 95.697-95.697s-42.956-95.697-95.697-95.697v0zM350.9 97.099c-17.599 0-31.89-14.305-31.89-31.904s14.291-31.89 31.89-31.89c17.599 0 31.904 14.291 31.904 31.89s-14.305 31.904-31.904 31.904v0zM326.347 224.701c-37.919 0-70.83 27.004-78.221 64.121l-112.181 561.080c-1.538 7.432-8.071 12.807-15.68 12.807h-88.362c-17.599 0-31.904 14.305-31.904 31.904s14.305 31.89 31.904 31.89h88.362c37.907 0 70.763-26.949 78.208-64.107l25.465-127.289h717.075c24.187 0 46.78-10.794 61.984-29.618 15.217-18.824 21.002-43.174 15.951-66.884l-55.927-289.762c-6.642-34.34-34.395-60.187-69.115-64.284l-564.265-59.697c-1.007-0.108-2.137-0.163-3.293-0.163v0zM236.706 671.299l73.948-369.984c1.388-7.078 7.391-12.236 14.469-12.767l561.76 59.397c6.601 0.79 12.236 6.002 13.611 12.971l56.036 290.401c1.497 7.119-1.266 11.855-3.076 14.032-1.811 2.232-5.798 5.948-12.44 5.948h-704.307zM797.514 97.099h-478.503c-52.756 0-95.712 42.956-95.712 95.697s42.956 95.712 95.712 95.712c17.585 0 31.89-14.251 31.89-31.904s-14.305-31.904-31.89-31.904c-17.599 0-31.904-14.305-31.904-31.904s14.305-31.904 31.904-31.904h478.503c17.654 0 31.904-14.237 31.904-31.89s-14.251-31.904-31.904-31.904v0z" />
<glyph unicode="&#xe91a;" glyph-name="cart-craft" data-tags="cart-craft" d="M797.516-30.505c-52.742 0-95.712 42.955-95.712 95.697s42.97 95.697 95.712 95.697c52.742 0 95.697-42.955 95.697-95.697s-42.955-95.697-95.697-95.697v0zM350.901-30.505c-52.742 0-95.697 42.955-95.697 95.697s42.955 95.697 95.697 95.697c52.742 0 95.697-42.955 95.697-95.697s-42.955-95.697-95.697-95.697v0zM326.347 224.699c-37.92 0-70.831 27.004-78.221 64.121l-112.181 561.082c-1.538 7.431-8.071 12.808-15.679 12.808h-88.362c-17.598 0-31.904 14.305-31.904 31.904s14.305 31.89 31.904 31.89h88.362c37.906 0 70.763-26.949 78.208-64.107l25.466-127.288h717.075c24.186 0 46.781-10.793 61.984-29.617 15.217-18.824 21.001-43.173 15.952-66.883l-55.927-289.761c-6.642-34.341-34.394-60.187-69.116-64.285l-564.266-59.698c-1.008-0.109-2.137-0.163-3.294-0.163v0zM797.516 97.097h-478.503c-52.755 0-95.712 42.955-95.712 95.697s42.955 95.712 95.712 95.712c17.585 0 31.89-14.25 31.89-31.904s-14.305-31.904-31.89-31.904c-17.598 0-31.904-14.305-31.904-31.904s14.305-31.904 31.904-31.904h478.503c17.653 0 31.904-14.237 31.904-31.89s-14.25-31.904-31.904-31.904v0z" />
<glyph unicode="&#xe91b;" glyph-name="cart-hugo" data-tags="cart-hugo" d="M1014.464 605.225l-108.323-281.009c-14.846-38.491-56.982-66.443-100.026-66.443h-430.304c-46.034 0-87.838 32.266-97.205 75.224l-104.756 478.248h-173.85v103.848h181.807c46.034 0 87.838-32.308 97.205-75.148l29.039-132.453h631.441c27.535 0 51.919-11.568 66.689-31.68 14.752-20.206 17.818-45.957 8.281-70.587v0zM330.772 603.687l52.998-242.151h422.345l91.82 242.151h-567.164zM412.138 188.518c60.133 0 109.070-46.611 109.070-103.848s-48.939-103.754-109.070-103.754c-60.133 0-109.070 46.534-109.070 103.762s48.939 103.838 109.070 103.838v0zM794.005 188.518c60.133 0 109.070-46.611 109.070-103.848s-48.939-103.762-109.070-103.762c-60.217 0-109.070 46.534-109.070 103.762s48.853 103.848 109.070 103.848v0z" />
<glyph unicode="&#xe91c;" glyph-name="cart-cafe" data-tags="cart-cafe" d="M341.336 57.040c0-40.396 32.748-73.143 73.143-73.143s73.143 32.748 73.143 73.143c0 40.396-32.748 73.143-73.143 73.143s-73.143-32.748-73.143-73.143v0zM828.953 57.040c0-40.396 32.748-73.143 73.143-73.143s73.143 32.748 73.143 73.143c0 40.396-32.748 73.143-73.143 73.143s-73.143-32.748-73.143-73.143v0zM390.096 373.991h536.38c53.863 0 97.524 43.662 97.524 97.524v170.666c0 53.863-43.661 97.524-97.524 97.524h-536.38c-26.932 0-48.762-21.833-48.762-48.762 0-26.932 21.831-48.762 48.762-48.762h487.618c26.932 0 48.762-21.831 48.762-48.762v-73.143c0-26.932-21.831-48.762-48.762-48.762h-579.907l-113.31 402.908c-6.167 23.017-27.811 37.68-50.733 35.945h-85.002c-26.932 0-48.762-21.831-48.762-48.762s21.831-48.762 63.633-48.762h36.881l168.104-597.75c5.727-21.367 24.823-35.367 45.868-35.904 0.833-0.041 1.62-0.249 2.464-0.249h633.904c26.932 0 48.762 21.831 48.762 48.762s-21.831 48.762-48.762 48.762h-560.761c-26.932 0-48.762 21.831-48.762 48.762s21.83 48.762 48.762 48.762z" />
<glyph unicode="&#xe91d;" glyph-name="eye-quick-view" data-tags="eye-quick-view" d="M512 798.048c-232.727 0-431.476-145.154-512-350.048 80.523-204.895 279.273-350.048 512-350.048 232.96 0 431.477 145.154 512 350.048-80.524 204.895-279.040 350.048-512 350.048v0zM512 214.633c-128.465 0-232.727 104.547-232.727 233.366s104.262 233.366 232.727 233.366c128.467 0 232.727-104.547 232.727-233.366s-104.262-233.366-232.727-233.366v0zM512 588.019c-77.033 0-139.636-62.776-139.636-140.020s62.604-140.020 139.636-140.020c77.033 0 139.636 62.776 139.636 140.020s-62.604 140.020-139.636 140.020v0z" />
<glyph unicode="&#xe91e;" glyph-name="close1" data-tags="close1" d="M997.179 95.878l-352.206 352.122 352.138 352.138c14.952 14.952 14.952 38.695 0 52.415l-106.146 106.146-378.347-378.263-379.646 379.562-106.146-106.146c-14.952-14.952-14.952-38.695 0-52.415l352.138-352.122-350.907-353.437c-14.952-14.952-14.952-38.695 0-52.415l106.146-106.146 378.413 378.329 379.646-379.646 106.146 106.146c13.719 15.036 13.719 38.778-1.231 53.731z" />
<glyph unicode="&#xe91f;" glyph-name="close2" data-tags="close2" d="M925.972-55.266c-22.868 0-45.699 8.713-63.145 26.147l-350.847 350.853-350.815-350.853c-34.893-34.868-91.385-34.868-126.278 0-34.888 34.837-34.888 91.405 0 126.267l350.815 350.853-350.815 350.827c-34.888 34.837-34.888 91.399 0 126.267 34.893 34.893 91.385 34.868 126.278 0l350.815-350.853 350.847 350.853c34.893 34.868 91.391 34.868 126.284 0 34.888-34.868 34.888-91.43 0-126.267l-350.821-350.827 350.821-350.853c34.888-34.862 34.888-91.43 0-126.267-17.414-17.434-40.277-26.147-63.139-26.147v0z" />
<glyph unicode="&#xe920;" glyph-name="check" data-tags="check" d="M927.93 776.152v0c-18.089-0.558-35.281-8.115-47.92-21.064l-466.442-466.442-253.379 204.359c-72.358 58.575-160.19-49.964-87.846-108.536l302.009-243.931c27.77-22.504 68.13-20.259 93.299 5.096l511.093 511.093c45.255 44.404 12.515 121.238-50.815 119.425z" />
<glyph unicode="&#xe921;" glyph-name="share" data-tags="share" d="M170.667 959.999c-94.467 0-170.666-76.2-170.666-170.666v-682.665c0-93.266 76.2-170.666 170.666-170.666h682.665c93.266 0 170.666 77.4 170.666 170.666v260.565c0 14.806-5.689 29.568-17.067 39.822-35.256 35.256-96.711 10.255-96.711-39.822v-260.565c0-31.889-25-56.889-56.889-56.889h-682.665c-31.889 0-56.889 25-56.889 56.889v682.665c0 31.889 25 56.889 56.889 56.889h260.565c51.2 0 76.2 61.455 39.822 96.711-10.255 11.378-23.879 17.067-39.822 17.067h-260.565zM663.356 922.421l97.834-97.834c9.117-9.117 9.117-22.756 0-30.689l-362.965-364.088c-26.2-26.2-26.2-69.39 0-95.588s69.39-26.2 95.588 0l362.965 362.965c9.117 9.117 22.756 9.117 30.689 0l97.834-97.834c13.639-13.639 37.578-4.566 37.578 15.929v323.082c1.123 11.378-9.134 21.632-20.511 21.632h-323.143c-20.434 0-29.568-23.879-15.868-37.578v0z" />
<glyph unicode="&#xe922;" glyph-name="heart" data-tags="heart" d="M744.952 888.881c-174.231 0-232.952-154.611-232.952-154.611s-58.669 154.611-232.952 154.611c-174.135 0-279.048-166.025-279.048-302.886 0-229.321 512-578.874 512-578.874s512 349.444 512 578.833c0 136.902-104.858 302.927-279.048 302.927v0z" />
<glyph unicode="&#xe923;" glyph-name="huaban" data-tags="huaban" d="M266.036 201.149c-8.377 8.377-20.368 19.534-29.962 29.509 1.148-28.293 29.962-29.509 29.962-29.509v0zM266.036 591.549c75.806 228.845 258.112 285.362 258.112 285.362s-102.848 33.090-237.014 41.952c-106.497 7.021-249.943-15.571-249.943-15.571s-37.191-395.927 191.030-664.048c2.259-2.676 5.006-5.596 7.891-8.584 0 0.209-0.069 0.312-0.069 0.521-2.015 75.007-13.452 229.229 29.996 360.37v0zM984.202 247.482c-10.567 110.704-41.814 223.805-41.814 223.805s-61.835-162.98-255.888-240.108c-141.221-56.168-309.866-62.078-389.67-60.061 267.322-226.481 671.383-198.815 671.383-198.815s26.902 160.79 15.988 275.179v0zM266.036 201.149c0 0-1.077-29.232 30.030-30.030h0.764c-1.494 1.285-3.059 2.433-4.554 3.718-11.297 9.697-15.536 15.536-26.241 26.312v0zM261.969 211.959c0 0 348.343-54.153 555.187 151.683s151.022 539.65 151.022 539.65c0 0-366 48.071-553.798-138.823s-152.413-552.51-152.413-552.51v0z" />
<glyph unicode="&#xe924;" glyph-name="qq" data-tags="qq" d="M967.327 263.315c-7.181 98.902-73.544 181.757-111.906 224.613 5.325 12.468 18.283 84.634-31.754 133.875 0.080 1.181 0.080 2.352 0.080 3.499 0 194.249-138.261 334.064-311.741 334.698-173.509-0.638-311.764-140.451-311.764-334.698 0-1.145-0.017-2.316 0.066-3.499-50.037-49.241-37.056-121.407-31.754-133.875-38.337-42.855-104.707-125.712-111.904-224.613-1.298-26 2.722-63.87 15.422-80.703 15.475-20.525 57.953 4.121 88.33 69.696 8.451-30.379 27.959-76.756 72.097-135.622-73.869-16.857-94.94-89.716-70.089-129.541 17.527-28.063 57.653-51.145 126.808-51.145 123.038 0 177.374 33.067 201.624 56.092 4.943 5.023 12.072 7.445 21.163 7.464 9.061-0.019 16.206-2.441 21.132-7.464 24.253-23.025 78.599-56.092 201.61-56.092 69.178 0 109.278 23.082 126.804 51.145 24.857 39.825 3.791 112.684-70.059 129.541 44.14 58.868 63.652 105.243 72.097 135.622 30.385-65.575 72.853-90.219 88.343-69.696 12.687 16.831 16.713 54.703 15.392 80.703v0z" />
<glyph unicode="&#xe925;" glyph-name="qzone" data-tags="qzone" d="M512.004 960.001c-282.764 0-511.995-229.23-511.995-511.989 0-282.75 229.23-512.011 511.995-512.011 282.758 0 511.989 229.264 511.989 512.011-0.002 282.758-229.23 511.989-511.989 511.989v0zM695.611 378.172l8.253-132.009c0.373-2.249 0.569-4.559 0.569-6.902 0-23.335-18.948-42.256-42.326-42.256-0.052-0.012-0.135 0-0.214 0-5.088 0-10.189 0.915-15.070 2.774l-129.317 49.211-129.336-49.211c-4.883-1.857-9.994-2.774-15.067-2.774-8.904 0-17.72 2.797-25.096 8.22-11.585 8.523-18.056 22.326-17.153 36.667l8.533 136.284-88.384 108.649c-9.143 11.235-11.882 26.369-7.273 40.089 4.627 13.733 15.956 24.144 30.048 27.583l133.646 32.725 74.211 118.157c7.746 12.326 21.289 19.805 35.862 19.805s28.116-7.481 35.858-19.805l74.225-118.157 133.636-32.725c14.096-3.441 25.424-13.849 30.050-27.583 4.609-13.719 1.876-28.852-7.273-40.089l-88.384-108.651zM667.223 517.203c-148.56 36.313-298.124 13.706-298.124 13.706 125.566-12.71 188.68-39.772 188.68-39.772l-179.581-154.484c165.605-39.479 301.965 7.379 301.965 7.379-178.396 17.529-200.7 32.88-200.7 32.88l187.763 140.293z" />
<glyph unicode="&#xe926;" glyph-name="wechat2" data-tags="wechat" d="M300.708 851.44c-299.433-53.484-399.238-391.781-161.061-546.619 13.063-8.389 13.063-7.46-6.528-65.919l-16.79-50.057 120.639 64.67 32.022-7.773c33.58-8.389 76.487-14.298 105.092-14.298h17.107l-5.91 22.7c-46.948 172.876 115.359 344.203 326.481 344.203h28.608l-5.907 20.52c-46.331 161.993-241.906 266.782-433.752 232.583v0zM274.594 700.015c31.717-21.455 33.582-67.785 3.11-87.686-49.44-32.335-107.271 24.565-74.004 73.075 14.613 21.765 49.747 28.919 70.894 14.613v0zM529.551 700.015c52.237-35.134 13.063-116.291-45.399-93.907-42.285 16.172-47.262 74.307-7.773 95.142 15.545 8.389 39.805 7.773 53.172-1.245v0zM644.911 571.905c-148.314-27.045-251.238-139.606-245.33-268.95 7.773-173.19 210.816-292.582 405.763-239.108l23.012 6.222 48.51-26.114c26.742-14.613 49.128-25.182 49.744-23.944 0.62 1.55-4.661 20.206-11.5 41.668-15.545 47.882-15.859 44.467 4.975 59.391 234.446 168.216 28.608 505.892-275.173 450.858v0zM639.004 432.299c13.060-8.705 19.9-30.472 14.298-46.331-11.815-33.895-62.492-36.378-76.184-3.727-15.545 37.625 27.362 72.444 61.876 50.060v0zM846.708 428.569c20.52-19.588 17.105-52.856-6.84-65.299-36.693-18.654-75.239 18.654-56.279 54.418 12.433 23.012 44.464 28.605 63.12 10.883v0z" />
<glyph unicode="&#xe927;" glyph-name="weibo2" data-tags="weibo" d="M727.683 461.738c0 0 131.841 233.971-249.473 111.165 47.801 37.453 40.079 113.772 2.567 140.876-139.603 100.837-480.777-221.016-480.777-412.32 0-116.319 125.353-267.563 411.007-267.563 359.363 0 471.783 196.477 471.783 292.099 0 131.88-155.105 135.742-155.105 135.742v0zM422.825 84.226c-167.393-15.6-311.659 63.794-322.185 177.368-10.643 113.535 116.476 218.232 283.908 233.814 167.393 15.58 311.659-63.794 322.223-177.349s-116.515-218.254-283.947-233.834v0zM363.714 413.466c-90.645-15.346-153.458-90.762-140.288-168.354 13.132-77.631 97.23-128.137 187.875-112.811 90.604 15.346 153.42 90.703 140.288 168.354-13.171 77.63-97.23 128.117-187.875 112.811v0zM347.958 192.020c-29.281-8.035-59.033 7.172-66.459 33.984-7.35 26.89 10.407 55.171 39.649 63.245 29.281 8.074 59.033-7.135 66.42-33.984s-10.33-55.131-39.61-63.245v0zM424.001 278.214c-15.053 0-27.261 12.171-27.261 27.224 0 15.031 12.21 27.242 27.261 27.242s27.222-12.23 27.222-27.242c0.002-15.053-12.169-27.224-27.222-27.224v0zM952.562 751.819c-60.168 76.924-156.595 110.283-271.443 93.917-19.364-2.745-32.848-20.677-30.084-40.059 2.724-19.324 20.599-32.751 40.041-30.045 113.731 16.227 174.664-27.712 205.747-67.459 40.804-52.23 52.328-126.668 28.634-185.169-7.35-18.128 1.372-38.786 19.521-46.116 4.372-1.764 8.838-2.606 13.289-2.606 13.974 0 27.222 8.35 32.809 22.107 32.925 81.236 17.46 183.874-38.512 255.43v0zM715.159 717.227c-19.284-2.763-32.768-20.697-30.006-40.041s20.599-32.768 40.041-30.045c32.534 4.665 57.876-3.155 73.085-22.598 13.699-17.561 17.757-43.332 9.956-62.716-7.35-18.128 1.412-38.766 19.521-46.116 4.409-1.764 8.838-2.587 13.289-2.587 13.974 0 27.261 8.35 32.809 22.107 17.463 43.039 9.682 95.21-19.796 132.919-18.090 23.166-60.207 60.326-138.897 49.075v0z" />
<glyph unicode="&#xe928;" glyph-name="douban2" data-tags="douban" d="M27.448 949.89h969.102v-109.167h-969.102v109.167zM912.326 300.075v426.769h-800.651v-426.769l800.651-0.002zM227.801 617.753h569.607v-208.645h-569.607v208.645zM739.118 54.084c34.837 53.33 67.711 115.181 98.176 185.383l-116.457 42.453c-30.281-83.191-65.568-159.254-105.683-227.837h-202.689c-33.629 88.885-71.517 164.89-114.047 227.837l-107.113-42.453c44.188-66.277 79.779-127.979 107.113-185.383h-298.418v-107.976h1024v107.976h-284.878z" />
<glyph unicode="&#xe929;" glyph-name="date-o" data-tags="date-o" d="M614.449 429.95h135.3c27.55 0 49.884 22.033 49.884 49.201 0 27.183-22.332 49.201-49.884 49.201h-135.3c-27.55 0-49.884-22.016-49.884-49.201 0-27.166 22.334-49.201 49.884-49.201zM872.465 849.41h-110.466v71.433c0 21.626-21.451 39.157-47.919 39.157-26.449 0-47.917-17.534-47.917-39.157v-71.433h-312.015v68.74c0 21.626-21.451 39.159-47.908 39.159-26.466 0-47.908-17.534-47.908-39.159v-68.74h-106.807c-83.55 0-151.524-58.959-151.524-131.426v-650.549c0-72.467 67.974-131.435 151.524-131.435h720.941c83.567 0 151.535 58.967 151.535 131.435v650.549c0 72.465-67.968 131.426-151.535 131.426zM919.132 67.435c0-12.7-20.382-27.467-46.667-27.467h-720.941c-26.274 0-46.65 14.767-46.65 27.467v650.549c0 12.691 20.375 27.458 46.65 27.458h106.807v-51.725c0-21.634 21.442-39.166 47.908-39.166 26.46 0 47.908 17.534 47.908 39.166v51.725h312.017v-49.041c0-21.626 21.468-39.157 47.917-39.157 26.468 0 47.919 17.534 47.919 39.157v49.041h110.466c26.283 0 46.667-14.767 46.667-27.458v-650.549h-0.002zM750.901 333.333h-476.651c-27.55 0-49.884-22.033-49.884-49.201 0-27.183 22.334-49.201 49.884-49.201h476.651c27.533 0 49.867 22.033 49.867 49.201s-22.334 49.201-49.867 49.201z" />
<glyph unicode="&#xe92a;" glyph-name="upload-bag4" data-tags="upload-bag4" d="M869.978 782.033h-168.478c-0.085 92.838-75.64 168.392-168.478 168.392s-168.416-75.555-168.492-168.392h-168.392l-74.92-823.608h823.608l-74.858 823.608zM383.355 678.703c-15.5 0-28.11 12.585-28.11 28.086 0 8.308 3.634 15.663 9.361 20.746v-20.746c0-10.33 8.407-18.724 18.748-18.724s18.724 8.308 18.724 18.724v20.746c5.727-5.17 9.361-12.524 9.361-20.746-0.085-15.5-12.585-28.086-28.086-28.086zM402.003 782.033c0 72.254 58.776 131.092 131.029 131.092s130.944-58.838 131.029-131.092h-262.050zM682.777 678.703c-15.5 0-28.11 12.585-28.11 28.086 0 8.308 3.634 15.663 9.386 20.746v-20.746c0-10.33 8.394-18.724 18.724-18.724s18.724 8.308 18.724 18.724v20.746c5.666-5.17 9.361-12.524 9.361-20.746-0.085-15.5-12.585-28.086-28.086-28.086z" />
</font>
</defs>
</svg>
